<mxfile host="app.diagrams.net" modified="2023-02-07T17:20:15.294Z" agent="5.0 (Windows NT 10.0; Win64; x64) AppleWebKit/537.36 (KHTML, like Gecko) Chrome/109.0.0.0 Safari/537.36 Edg/109.0.1518.78" etag="1zv5RGG4j2_4BC4bO50Q" version="20.8.17" type="github">
  <diagram name="第 1 页" id="Abat6pUyQVyoSOonriwR">
    <mxGraphModel dx="484" dy="247" grid="1" gridSize="10" guides="1" tooltips="1" connect="1" arrows="1" fold="1" page="1" pageScale="1" pageWidth="827" pageHeight="1169" math="0" shadow="0">
      <root>
        <mxCell id="0" />
        <mxCell id="1" parent="0" />
        <mxCell id="A7C5cVz3kOfiMGiPul0y-2" style="edgeStyle=orthogonalEdgeStyle;rounded=0;orthogonalLoop=1;jettySize=auto;html=1;entryX=0.5;entryY=0;entryDx=0;entryDy=0;fontFamily=宋体;fontSize=26;endArrow=block;endFill=1;" edge="1" parent="1" source="A7C5cVz3kOfiMGiPul0y-3" target="A7C5cVz3kOfiMGiPul0y-50">
          <mxGeometry relative="1" as="geometry" />
        </mxCell>
        <mxCell id="A7C5cVz3kOfiMGiPul0y-3" value="" style="verticalLabelPosition=bottom;verticalAlign=top;html=1;shape=mxgraph.basic.rect;fillColor2=none;strokeWidth=1;size=20;indent=5;fillStyle=auto;rotation=90;fontFamily=Times New Roman;" vertex="1" parent="1">
          <mxGeometry x="310" y="350" width="105" height="30" as="geometry" />
        </mxCell>
        <mxCell id="A7C5cVz3kOfiMGiPul0y-4" value="" style="verticalLabelPosition=bottom;verticalAlign=top;html=1;shape=mxgraph.basic.rect;fillColor2=none;strokeWidth=1;size=20;indent=5;fillStyle=auto;rotation=90;fontFamily=Times New Roman;" vertex="1" parent="1">
          <mxGeometry x="310" y="470" width="105" height="30" as="geometry" />
        </mxCell>
        <mxCell id="A7C5cVz3kOfiMGiPul0y-274" style="edgeStyle=orthogonalEdgeStyle;rounded=0;orthogonalLoop=1;jettySize=auto;html=1;entryX=0.578;entryY=0.017;entryDx=0;entryDy=0;entryPerimeter=0;fontFamily=Times New Roman;fontSize=20;startArrow=none;startFill=0;endArrow=block;endFill=1;" edge="1" parent="1" source="A7C5cVz3kOfiMGiPul0y-5" target="A7C5cVz3kOfiMGiPul0y-122">
          <mxGeometry relative="1" as="geometry" />
        </mxCell>
        <mxCell id="A7C5cVz3kOfiMGiPul0y-5" value="" style="verticalLabelPosition=bottom;verticalAlign=top;html=1;shape=mxgraph.basic.rect;fillColor2=none;strokeWidth=1;size=20;indent=5;fillStyle=auto;rotation=90;fontFamily=Times New Roman;" vertex="1" parent="1">
          <mxGeometry x="310" y="230" width="105" height="30" as="geometry" />
        </mxCell>
        <mxCell id="A7C5cVz3kOfiMGiPul0y-8" style="edgeStyle=orthogonalEdgeStyle;rounded=0;orthogonalLoop=1;jettySize=auto;html=1;entryX=0.5;entryY=0;entryDx=0;entryDy=0;endArrow=block;endFill=1;fontFamily=Times New Roman;" edge="1" parent="1" source="A7C5cVz3kOfiMGiPul0y-5" target="A7C5cVz3kOfiMGiPul0y-64">
          <mxGeometry relative="1" as="geometry">
            <mxPoint x="318.28999999999974" y="5" as="targetPoint" />
          </mxGeometry>
        </mxCell>
        <mxCell id="A7C5cVz3kOfiMGiPul0y-9" value="" style="edgeStyle=orthogonalEdgeStyle;rounded=0;orthogonalLoop=1;jettySize=auto;html=1;endArrow=block;endFill=1;entryX=0.5;entryY=1;entryDx=0;entryDy=0;fontFamily=Times New Roman;" edge="1" parent="1" source="A7C5cVz3kOfiMGiPul0y-4" target="A7C5cVz3kOfiMGiPul0y-50">
          <mxGeometry relative="1" as="geometry">
            <mxPoint x="210" y="160" as="targetPoint" />
          </mxGeometry>
        </mxCell>
        <mxCell id="A7C5cVz3kOfiMGiPul0y-10" value="" style="group;fontFamily=Times New Roman;" vertex="1" connectable="0" parent="1">
          <mxGeometry x="550.1043001811096" y="396.8143001811096" width="56.568542494923804" height="56.568542494923804" as="geometry" />
        </mxCell>
        <mxCell id="A7C5cVz3kOfiMGiPul0y-11" style="edgeStyle=none;rounded=0;orthogonalLoop=1;jettySize=auto;html=1;exitX=0;exitY=1;exitDx=0;exitDy=0;strokeWidth=3;fontColor=#ffffff;startArrow=none;startFill=0;endArrow=none;endFill=0;fontFamily=Times New Roman;" edge="1" parent="A7C5cVz3kOfiMGiPul0y-10">
          <mxGeometry relative="1" as="geometry">
            <mxPoint x="17.072496383293924" y="39.49890325448695" as="targetPoint" />
            <Array as="points" />
            <mxPoint x="17.072496383293924" y="39.49890325448695" as="sourcePoint" />
          </mxGeometry>
        </mxCell>
        <mxCell id="A7C5cVz3kOfiMGiPul0y-12" value="" style="ellipse;whiteSpace=wrap;html=1;fillStyle=auto;strokeColor=#000000;fillColor=#ffffff;rotation=45;fontFamily=Times New Roman;" vertex="1" parent="A7C5cVz3kOfiMGiPul0y-10">
          <mxGeometry x="8.284271247461902" y="8.284271247461902" width="40" height="40" as="geometry" />
        </mxCell>
        <mxCell id="A7C5cVz3kOfiMGiPul0y-13" style="edgeStyle=none;rounded=0;orthogonalLoop=1;jettySize=auto;html=1;exitX=1;exitY=0;exitDx=0;exitDy=0;strokeWidth=3;fontColor=#ffffff;startArrow=none;startFill=0;endArrow=none;endFill=0;fontFamily=Times New Roman;" edge="1" parent="A7C5cVz3kOfiMGiPul0y-10" source="A7C5cVz3kOfiMGiPul0y-12" target="A7C5cVz3kOfiMGiPul0y-12">
          <mxGeometry relative="1" as="geometry" />
        </mxCell>
        <mxCell id="A7C5cVz3kOfiMGiPul0y-14" style="edgeStyle=none;rounded=0;orthogonalLoop=1;jettySize=auto;html=1;exitX=1;exitY=0;exitDx=0;exitDy=0;strokeWidth=3;fontColor=#ffffff;startArrow=none;startFill=0;endArrow=none;endFill=0;fontFamily=Times New Roman;" edge="1" parent="A7C5cVz3kOfiMGiPul0y-10" source="A7C5cVz3kOfiMGiPul0y-12" target="A7C5cVz3kOfiMGiPul0y-12">
          <mxGeometry relative="1" as="geometry" />
        </mxCell>
        <mxCell id="A7C5cVz3kOfiMGiPul0y-15" style="edgeStyle=none;rounded=0;orthogonalLoop=1;jettySize=auto;html=1;exitX=0;exitY=1;exitDx=0;exitDy=0;strokeWidth=3;fontColor=#ffffff;startArrow=none;startFill=0;endArrow=none;endFill=0;fontFamily=Times New Roman;" edge="1" parent="A7C5cVz3kOfiMGiPul0y-10" source="A7C5cVz3kOfiMGiPul0y-12" target="A7C5cVz3kOfiMGiPul0y-12">
          <mxGeometry relative="1" as="geometry">
            <mxPoint x="108.56998553317624" y="-25.43001446682382" as="targetPoint" />
            <Array as="points" />
          </mxGeometry>
        </mxCell>
        <mxCell id="A7C5cVz3kOfiMGiPul0y-16" style="edgeStyle=none;rounded=1;orthogonalLoop=1;jettySize=auto;html=1;entryX=0;entryY=1;entryDx=0;entryDy=0;strokeWidth=3;fontColor=#ffffff;startArrow=none;startFill=0;endArrow=none;endFill=0;fontFamily=Times New Roman;" edge="1" parent="A7C5cVz3kOfiMGiPul0y-10" source="A7C5cVz3kOfiMGiPul0y-12" target="A7C5cVz3kOfiMGiPul0y-12">
          <mxGeometry relative="1" as="geometry" />
        </mxCell>
        <mxCell id="A7C5cVz3kOfiMGiPul0y-17" value="" style="ellipse;whiteSpace=wrap;html=1;aspect=fixed;fillColor=#000000;fontFamily=Times New Roman;" vertex="1" parent="A7C5cVz3kOfiMGiPul0y-10">
          <mxGeometry x="24.78569981889052" y="24.785699818890464" width="7" height="7" as="geometry" />
        </mxCell>
        <mxCell id="A7C5cVz3kOfiMGiPul0y-33" value="&lt;font style=&quot;font-size: 22px;&quot;&gt;V&lt;sub&gt;x&lt;/sub&gt;&lt;/font&gt;" style="text;html=1;align=center;verticalAlign=middle;resizable=0;points=[];autosize=1;strokeColor=none;fillColor=none;fontFamily=Times New Roman;" vertex="1" parent="1">
          <mxGeometry x="450" y="200" width="50" height="50" as="geometry" />
        </mxCell>
        <mxCell id="A7C5cVz3kOfiMGiPul0y-34" value="&lt;font style=&quot;font-size: 22px;&quot;&gt;Q&lt;/font&gt;&lt;font style=&quot;font-size: 18.3333px;&quot;&gt;x&lt;/font&gt;" style="text;html=1;align=center;verticalAlign=middle;resizable=0;points=[];autosize=1;strokeColor=none;fillColor=none;fontFamily=Times New Roman;" vertex="1" parent="1">
          <mxGeometry x="390" y="330" width="50" height="40" as="geometry" />
        </mxCell>
        <mxCell id="A7C5cVz3kOfiMGiPul0y-35" value="&lt;font style=&quot;&quot;&gt;&lt;sub style=&quot;&quot;&gt;&lt;span style=&quot;font-size: 22px;&quot;&gt;Ky&lt;/span&gt;&lt;/sub&gt;&lt;/font&gt;" style="text;html=1;align=center;verticalAlign=middle;resizable=0;points=[];autosize=1;strokeColor=none;fillColor=none;fontFamily=Times New Roman;" vertex="1" parent="1">
          <mxGeometry x="390" y="480" width="50" height="40" as="geometry" />
        </mxCell>
        <mxCell id="A7C5cVz3kOfiMGiPul0y-36" value="E" style="text;html=1;align=center;verticalAlign=middle;resizable=0;points=[];autosize=1;strokeColor=none;fillColor=none;fontSize=22;fontFamily=Times New Roman;" vertex="1" parent="1">
          <mxGeometry x="500" y="380" width="40" height="40" as="geometry" />
        </mxCell>
        <mxCell id="A7C5cVz3kOfiMGiPul0y-37" value="A&lt;sub&gt;xy&lt;/sub&gt;" style="text;html=1;align=center;verticalAlign=middle;resizable=0;points=[];autosize=1;strokeColor=none;fillColor=none;fontSize=22;fontFamily=Times New Roman;" vertex="1" parent="1">
          <mxGeometry x="570.21" y="350" width="60" height="50" as="geometry" />
        </mxCell>
        <mxCell id="A7C5cVz3kOfiMGiPul0y-39" value="&lt;b&gt;&lt;font style=&quot;font-size: 20px;&quot;&gt;B,C&lt;/font&gt;&lt;/b&gt;" style="text;html=1;align=center;verticalAlign=middle;resizable=0;points=[];autosize=1;strokeColor=none;fillColor=none;fontSize=26;fontFamily=Times New Roman;" vertex="1" parent="1">
          <mxGeometry x="155" y="400" width="60" height="40" as="geometry" />
        </mxCell>
        <mxCell id="A7C5cVz3kOfiMGiPul0y-40" value="" style="group;fontFamily=Times New Roman;" vertex="1" connectable="0" parent="1">
          <mxGeometry x="730" y="233.04" width="285" height="160" as="geometry" />
        </mxCell>
        <mxCell id="A7C5cVz3kOfiMGiPul0y-41" value="" style="group;fontFamily=Times New Roman;" vertex="1" connectable="0" parent="A7C5cVz3kOfiMGiPul0y-40">
          <mxGeometry width="285" height="160" as="geometry" />
        </mxCell>
        <mxCell id="A7C5cVz3kOfiMGiPul0y-42" value="" style="rounded=0;whiteSpace=wrap;html=1;strokeColor=#000000;fontFamily=Times New Roman;" vertex="1" parent="A7C5cVz3kOfiMGiPul0y-41">
          <mxGeometry x="60" y="10" width="30" height="140" as="geometry" />
        </mxCell>
        <mxCell id="A7C5cVz3kOfiMGiPul0y-43" value="" style="rounded=0;whiteSpace=wrap;html=1;strokeColor=#000000;fontFamily=Times New Roman;" vertex="1" parent="A7C5cVz3kOfiMGiPul0y-41">
          <mxGeometry x="100" y="10" width="30" height="140" as="geometry" />
        </mxCell>
        <mxCell id="A7C5cVz3kOfiMGiPul0y-44" value="" style="rounded=0;whiteSpace=wrap;html=1;strokeColor=#000000;fontFamily=Times New Roman;" vertex="1" parent="A7C5cVz3kOfiMGiPul0y-41">
          <mxGeometry x="140" y="10" width="30" height="140" as="geometry" />
        </mxCell>
        <mxCell id="A7C5cVz3kOfiMGiPul0y-45" value="" style="rounded=0;whiteSpace=wrap;html=1;strokeColor=#000000;fontFamily=Times New Roman;" vertex="1" parent="A7C5cVz3kOfiMGiPul0y-41">
          <mxGeometry x="180" y="10" width="30" height="140" as="geometry" />
        </mxCell>
        <mxCell id="A7C5cVz3kOfiMGiPul0y-46" value="" style="verticalLabelPosition=bottom;verticalAlign=top;html=1;shape=mxgraph.basic.polygon;polyCoords=[[0.2,0],[0.8,0],[0.85,0.13],[0.85,0.88],[0.8,1],[0.2,1],[0.15,0.88],[0.15,0.13]];polyline=0;strokeColor=#000000;dashed=1;opacity=90;fillStyle=hatch;fontFamily=Times New Roman;" vertex="1" parent="A7C5cVz3kOfiMGiPul0y-41">
          <mxGeometry width="270" height="160" as="geometry" />
        </mxCell>
        <mxCell id="A7C5cVz3kOfiMGiPul0y-47" value="&lt;span style=&quot;font-size: 26px;&quot;&gt;F&lt;/span&gt;&lt;span style=&quot;font-size: 18.0556px;&quot;&gt;x&lt;/span&gt;" style="text;html=1;align=center;verticalAlign=middle;resizable=0;points=[];autosize=1;strokeColor=none;fillColor=none;fontSize=22;fontFamily=Times New Roman;" vertex="1" parent="A7C5cVz3kOfiMGiPul0y-41">
          <mxGeometry x="235" y="60" width="50" height="40" as="geometry" />
        </mxCell>
        <mxCell id="A7C5cVz3kOfiMGiPul0y-49" value="" style="group" vertex="1" connectable="0" parent="1">
          <mxGeometry x="454.89799318018765" y="404.9997698754841" width="40.20609157826698" height="40.20609157826698" as="geometry" />
        </mxCell>
        <mxCell id="A7C5cVz3kOfiMGiPul0y-50" value="" style="ellipse;whiteSpace=wrap;html=1;fillStyle=auto;strokeColor=#000000;fillColor=#ffffff;fontFamily=Times New Roman;container=0;" vertex="1" parent="A7C5cVz3kOfiMGiPul0y-49">
          <mxGeometry x="0.1020068198123738" y="0.10023012451586055" width="40" height="40" as="geometry" />
        </mxCell>
        <mxCell id="A7C5cVz3kOfiMGiPul0y-51" style="edgeStyle=none;rounded=0;orthogonalLoop=1;jettySize=auto;html=1;exitX=1;exitY=0;exitDx=0;exitDy=0;strokeWidth=3;fontColor=#ffffff;startArrow=none;startFill=0;endArrow=none;endFill=0;fontFamily=Times New Roman;" edge="1" parent="A7C5cVz3kOfiMGiPul0y-49" source="A7C5cVz3kOfiMGiPul0y-50" target="A7C5cVz3kOfiMGiPul0y-50">
          <mxGeometry relative="1" as="geometry" />
        </mxCell>
        <mxCell id="A7C5cVz3kOfiMGiPul0y-52" style="edgeStyle=none;rounded=0;orthogonalLoop=1;jettySize=auto;html=1;exitX=1;exitY=0;exitDx=0;exitDy=0;strokeWidth=3;fontColor=#ffffff;startArrow=none;startFill=0;endArrow=none;endFill=0;fontFamily=Times New Roman;" edge="1" parent="A7C5cVz3kOfiMGiPul0y-49" source="A7C5cVz3kOfiMGiPul0y-50" target="A7C5cVz3kOfiMGiPul0y-50">
          <mxGeometry relative="1" as="geometry" />
        </mxCell>
        <mxCell id="A7C5cVz3kOfiMGiPul0y-53" style="edgeStyle=none;rounded=0;orthogonalLoop=1;jettySize=auto;html=1;exitX=0;exitY=1;exitDx=0;exitDy=0;strokeWidth=3;fontColor=#ffffff;startArrow=none;startFill=0;endArrow=none;endFill=0;fontFamily=Times New Roman;" edge="1" parent="A7C5cVz3kOfiMGiPul0y-49" source="A7C5cVz3kOfiMGiPul0y-50" target="A7C5cVz3kOfiMGiPul0y-50">
          <mxGeometry relative="1" as="geometry">
            <mxPoint x="45.816292534098096" y="2.957372981658807" as="targetPoint" />
            <Array as="points" />
          </mxGeometry>
        </mxCell>
        <mxCell id="A7C5cVz3kOfiMGiPul0y-54" style="edgeStyle=none;rounded=1;orthogonalLoop=1;jettySize=auto;html=1;entryX=0;entryY=1;entryDx=0;entryDy=0;strokeWidth=3;fontColor=#ffffff;startArrow=none;startFill=0;endArrow=none;endFill=0;fontFamily=Times New Roman;" edge="1" parent="A7C5cVz3kOfiMGiPul0y-49" source="A7C5cVz3kOfiMGiPul0y-50" target="A7C5cVz3kOfiMGiPul0y-50">
          <mxGeometry relative="1" as="geometry" />
        </mxCell>
        <mxCell id="A7C5cVz3kOfiMGiPul0y-55" value="" style="group;rotation=45;" vertex="1" connectable="0" parent="A7C5cVz3kOfiMGiPul0y-49">
          <mxGeometry x="5.888045789133486" y="5.888045789133514" width="28.42999999999995" height="28.42999999999995" as="geometry" />
        </mxCell>
        <mxCell id="A7C5cVz3kOfiMGiPul0y-56" value="" style="group;rotation=45;" vertex="1" connectable="0" parent="A7C5cVz3kOfiMGiPul0y-55">
          <mxGeometry x="13" width="3" height="28.42999999999995" as="geometry" />
        </mxCell>
        <mxCell id="A7C5cVz3kOfiMGiPul0y-57" value="" style="shape=delay;whiteSpace=wrap;html=1;fontFamily=宋体;fontSize=26;fillColor=#000000;rotation=135;container=0;" vertex="1" parent="A7C5cVz3kOfiMGiPul0y-56">
          <mxGeometry x="-11" y="18" width="14.43" height="3" as="geometry" />
        </mxCell>
        <mxCell id="A7C5cVz3kOfiMGiPul0y-58" value="" style="shape=delay;whiteSpace=wrap;html=1;fontFamily=宋体;fontSize=26;fillColor=#000000;rotation=135;container=0;flipH=1;" vertex="1" parent="A7C5cVz3kOfiMGiPul0y-56">
          <mxGeometry x="-1" y="8" width="14.43" height="3" as="geometry" />
        </mxCell>
        <mxCell id="A7C5cVz3kOfiMGiPul0y-59" value="" style="group;rotation=135;" vertex="1" connectable="0" parent="A7C5cVz3kOfiMGiPul0y-55">
          <mxGeometry x="13" width="3" height="28.42999999999995" as="geometry" />
        </mxCell>
        <mxCell id="A7C5cVz3kOfiMGiPul0y-60" value="" style="shape=delay;whiteSpace=wrap;html=1;fontFamily=宋体;fontSize=26;fillColor=#000000;rotation=225;container=0;" vertex="1" parent="A7C5cVz3kOfiMGiPul0y-59">
          <mxGeometry x="-11" y="8" width="14.43" height="3" as="geometry" />
        </mxCell>
        <mxCell id="A7C5cVz3kOfiMGiPul0y-61" value="" style="shape=delay;whiteSpace=wrap;html=1;fontFamily=宋体;fontSize=26;fillColor=#000000;rotation=225;container=0;flipH=1;" vertex="1" parent="A7C5cVz3kOfiMGiPul0y-59">
          <mxGeometry x="-1" y="18" width="14.43" height="3" as="geometry" />
        </mxCell>
        <mxCell id="A7C5cVz3kOfiMGiPul0y-85" value="&lt;font face=&quot;宋体&quot;&gt;矩阵乘法&lt;/font&gt;" style="text;html=1;align=center;verticalAlign=middle;resizable=0;points=[];autosize=1;strokeColor=none;fillColor=none;fontSize=26;fontFamily=Times New Roman;" vertex="1" parent="1">
          <mxGeometry x="130.21000000000004" y="926.56" width="130" height="50" as="geometry" />
        </mxCell>
        <mxCell id="A7C5cVz3kOfiMGiPul0y-86" value="" style="group" vertex="1" connectable="0" parent="1">
          <mxGeometry x="401.92572875253813" y="919.9957287525381" width="168.2842712474619" height="56.568542494923804" as="geometry" />
        </mxCell>
        <mxCell id="A7C5cVz3kOfiMGiPul0y-87" value="&lt;font face=&quot;宋体&quot;&gt;矩阵加法&lt;/font&gt;" style="text;html=1;align=center;verticalAlign=middle;resizable=0;points=[];autosize=1;strokeColor=none;fillColor=none;fontSize=26;fontFamily=Times New Roman;" vertex="1" parent="A7C5cVz3kOfiMGiPul0y-86">
          <mxGeometry x="38.2842712474619" y="3.284271247461902" width="130" height="50" as="geometry" />
        </mxCell>
        <mxCell id="A7C5cVz3kOfiMGiPul0y-88" value="" style="group" vertex="1" connectable="0" parent="A7C5cVz3kOfiMGiPul0y-86">
          <mxGeometry x="0.004271247461902661" y="8.284271247461875" width="40" height="40" as="geometry" />
        </mxCell>
        <mxCell id="A7C5cVz3kOfiMGiPul0y-89" value="" style="ellipse;whiteSpace=wrap;html=1;fillStyle=auto;strokeColor=#000000;fillColor=#ffffff;fontFamily=Times New Roman;container=0;" vertex="1" parent="A7C5cVz3kOfiMGiPul0y-88">
          <mxGeometry width="40" height="40" as="geometry" />
        </mxCell>
        <mxCell id="A7C5cVz3kOfiMGiPul0y-92" style="edgeStyle=none;rounded=0;orthogonalLoop=1;jettySize=auto;html=1;exitX=0;exitY=1;exitDx=0;exitDy=0;strokeWidth=3;fontColor=#ffffff;startArrow=none;startFill=0;endArrow=none;endFill=0;fontFamily=Times New Roman;" edge="1" parent="A7C5cVz3kOfiMGiPul0y-88" source="A7C5cVz3kOfiMGiPul0y-89" target="A7C5cVz3kOfiMGiPul0y-89">
          <mxGeometry relative="1" as="geometry">
            <mxPoint x="-319.2857142857143" y="-317.1428571428571" as="targetPoint" />
            <Array as="points" />
          </mxGeometry>
        </mxCell>
        <mxCell id="A7C5cVz3kOfiMGiPul0y-93" style="edgeStyle=none;rounded=1;orthogonalLoop=1;jettySize=auto;html=1;entryX=0;entryY=1;entryDx=0;entryDy=0;strokeWidth=3;fontColor=#ffffff;startArrow=none;startFill=0;endArrow=none;endFill=0;fontFamily=Times New Roman;" edge="1" parent="A7C5cVz3kOfiMGiPul0y-88" source="A7C5cVz3kOfiMGiPul0y-89" target="A7C5cVz3kOfiMGiPul0y-89">
          <mxGeometry relative="1" as="geometry" />
        </mxCell>
        <mxCell id="A7C5cVz3kOfiMGiPul0y-94" value="" style="group;rotation=90;" vertex="1" connectable="0" parent="A7C5cVz3kOfiMGiPul0y-88">
          <mxGeometry x="18.781038969321116" y="5.777815664617606" width="3" height="28.42999999999995" as="geometry" />
        </mxCell>
        <mxCell id="A7C5cVz3kOfiMGiPul0y-95" value="" style="shape=delay;whiteSpace=wrap;html=1;fontFamily=宋体;fontSize=26;fillColor=#000000;rotation=180;container=0;" vertex="1" parent="A7C5cVz3kOfiMGiPul0y-94">
          <mxGeometry x="-13" y="13" width="14.43" height="3" as="geometry" />
        </mxCell>
        <mxCell id="A7C5cVz3kOfiMGiPul0y-96" value="" style="shape=delay;whiteSpace=wrap;html=1;fontFamily=宋体;fontSize=26;fillColor=#000000;rotation=180;container=0;flipH=1;" vertex="1" parent="A7C5cVz3kOfiMGiPul0y-94">
          <mxGeometry x="1" y="13" width="14.43" height="3" as="geometry" />
        </mxCell>
        <mxCell id="A7C5cVz3kOfiMGiPul0y-97" value="" style="group;fontFamily=Times New Roman;" vertex="1" connectable="0" parent="1">
          <mxGeometry x="675.3143001811096" y="921.5643001811095" width="56.568542494923804" height="56.568542494923804" as="geometry" />
        </mxCell>
        <mxCell id="A7C5cVz3kOfiMGiPul0y-98" style="edgeStyle=none;rounded=0;orthogonalLoop=1;jettySize=auto;html=1;exitX=0;exitY=1;exitDx=0;exitDy=0;strokeWidth=3;fontColor=#ffffff;startArrow=none;startFill=0;endArrow=none;endFill=0;fontFamily=Times New Roman;" edge="1" parent="A7C5cVz3kOfiMGiPul0y-97">
          <mxGeometry relative="1" as="geometry">
            <mxPoint x="17.072496383293924" y="39.49890325448695" as="targetPoint" />
            <Array as="points" />
            <mxPoint x="17.072496383293924" y="39.49890325448695" as="sourcePoint" />
          </mxGeometry>
        </mxCell>
        <mxCell id="A7C5cVz3kOfiMGiPul0y-99" value="" style="ellipse;whiteSpace=wrap;html=1;fillStyle=auto;strokeColor=#000000;fillColor=#ffffff;rotation=45;fontFamily=Times New Roman;" vertex="1" parent="A7C5cVz3kOfiMGiPul0y-97">
          <mxGeometry x="8.284271247461902" y="8.284271247461902" width="40" height="40" as="geometry" />
        </mxCell>
        <mxCell id="A7C5cVz3kOfiMGiPul0y-100" style="edgeStyle=none;rounded=0;orthogonalLoop=1;jettySize=auto;html=1;exitX=1;exitY=0;exitDx=0;exitDy=0;strokeWidth=3;fontColor=#ffffff;startArrow=none;startFill=0;endArrow=none;endFill=0;fontFamily=Times New Roman;" edge="1" parent="A7C5cVz3kOfiMGiPul0y-97">
          <mxGeometry relative="1" as="geometry">
            <mxPoint x="54.684271247462014" y="-146.71572875253787" as="sourcePoint" />
            <mxPoint x="54.684271247462014" y="-146.71572875253787" as="targetPoint" />
          </mxGeometry>
        </mxCell>
        <mxCell id="A7C5cVz3kOfiMGiPul0y-101" style="edgeStyle=none;rounded=0;orthogonalLoop=1;jettySize=auto;html=1;exitX=1;exitY=0;exitDx=0;exitDy=0;strokeWidth=3;fontColor=#ffffff;startArrow=none;startFill=0;endArrow=none;endFill=0;fontFamily=Times New Roman;" edge="1" parent="A7C5cVz3kOfiMGiPul0y-97">
          <mxGeometry relative="1" as="geometry">
            <mxPoint x="54.684271247462014" y="-146.71572875253787" as="sourcePoint" />
            <mxPoint x="54.684271247462014" y="-146.71572875253787" as="targetPoint" />
          </mxGeometry>
        </mxCell>
        <mxCell id="A7C5cVz3kOfiMGiPul0y-102" style="edgeStyle=none;rounded=0;orthogonalLoop=1;jettySize=auto;html=1;exitX=0;exitY=1;exitDx=0;exitDy=0;strokeWidth=3;fontColor=#ffffff;startArrow=none;startFill=0;endArrow=none;endFill=0;fontFamily=Times New Roman;" edge="1" parent="A7C5cVz3kOfiMGiPul0y-97" source="A7C5cVz3kOfiMGiPul0y-99" target="A7C5cVz3kOfiMGiPul0y-99">
          <mxGeometry relative="1" as="geometry">
            <mxPoint x="108.56998553317624" y="-25.43001446682382" as="targetPoint" />
            <Array as="points" />
          </mxGeometry>
        </mxCell>
        <mxCell id="A7C5cVz3kOfiMGiPul0y-103" style="edgeStyle=none;rounded=1;orthogonalLoop=1;jettySize=auto;html=1;entryX=0;entryY=1;entryDx=0;entryDy=0;strokeWidth=3;fontColor=#ffffff;startArrow=none;startFill=0;endArrow=none;endFill=0;fontFamily=Times New Roman;" edge="1" parent="A7C5cVz3kOfiMGiPul0y-97" source="A7C5cVz3kOfiMGiPul0y-99" target="A7C5cVz3kOfiMGiPul0y-99">
          <mxGeometry relative="1" as="geometry" />
        </mxCell>
        <mxCell id="A7C5cVz3kOfiMGiPul0y-104" value="" style="ellipse;whiteSpace=wrap;html=1;aspect=fixed;fillColor=#000000;fontFamily=Times New Roman;" vertex="1" parent="A7C5cVz3kOfiMGiPul0y-97">
          <mxGeometry x="24.78569981889052" y="24.785699818890464" width="7" height="7" as="geometry" />
        </mxCell>
        <mxCell id="A7C5cVz3kOfiMGiPul0y-105" value="" style="group" vertex="1" connectable="0" parent="1">
          <mxGeometry x="89.99999999999966" y="931.4599999999998" width="40.20609157826698" height="40.20609157826698" as="geometry" />
        </mxCell>
        <mxCell id="A7C5cVz3kOfiMGiPul0y-106" value="" style="ellipse;whiteSpace=wrap;html=1;fillStyle=auto;strokeColor=#000000;fillColor=#ffffff;fontFamily=Times New Roman;container=0;" vertex="1" parent="A7C5cVz3kOfiMGiPul0y-105">
          <mxGeometry x="0.1020068198123738" y="0.10023012451586055" width="40" height="40" as="geometry" />
        </mxCell>
        <mxCell id="A7C5cVz3kOfiMGiPul0y-107" style="edgeStyle=none;rounded=0;orthogonalLoop=1;jettySize=auto;html=1;exitX=1;exitY=0;exitDx=0;exitDy=0;strokeWidth=3;fontColor=#ffffff;startArrow=none;startFill=0;endArrow=none;endFill=0;fontFamily=Times New Roman;" edge="1" parent="A7C5cVz3kOfiMGiPul0y-105">
          <mxGeometry relative="1" as="geometry">
            <mxPoint x="44.24414244352954" y="-94.04190549920145" as="sourcePoint" />
            <mxPoint x="44.24414244352954" y="-94.04190549920145" as="targetPoint" />
          </mxGeometry>
        </mxCell>
        <mxCell id="A7C5cVz3kOfiMGiPul0y-108" style="edgeStyle=none;rounded=0;orthogonalLoop=1;jettySize=auto;html=1;exitX=1;exitY=0;exitDx=0;exitDy=0;strokeWidth=3;fontColor=#ffffff;startArrow=none;startFill=0;endArrow=none;endFill=0;fontFamily=Times New Roman;" edge="1" parent="A7C5cVz3kOfiMGiPul0y-105">
          <mxGeometry relative="1" as="geometry">
            <mxPoint x="44.24414244352954" y="-94.04190549920145" as="sourcePoint" />
            <mxPoint x="44.24414244352954" y="-94.04190549920145" as="targetPoint" />
          </mxGeometry>
        </mxCell>
        <mxCell id="A7C5cVz3kOfiMGiPul0y-109" style="edgeStyle=none;rounded=0;orthogonalLoop=1;jettySize=auto;html=1;exitX=0;exitY=1;exitDx=0;exitDy=0;strokeWidth=3;fontColor=#ffffff;startArrow=none;startFill=0;endArrow=none;endFill=0;fontFamily=Times New Roman;" edge="1" parent="A7C5cVz3kOfiMGiPul0y-105" source="A7C5cVz3kOfiMGiPul0y-106" target="A7C5cVz3kOfiMGiPul0y-106">
          <mxGeometry relative="1" as="geometry">
            <mxPoint x="45.816292534098096" y="2.957372981658807" as="targetPoint" />
            <Array as="points" />
          </mxGeometry>
        </mxCell>
        <mxCell id="A7C5cVz3kOfiMGiPul0y-110" style="edgeStyle=none;rounded=1;orthogonalLoop=1;jettySize=auto;html=1;entryX=0;entryY=1;entryDx=0;entryDy=0;strokeWidth=3;fontColor=#ffffff;startArrow=none;startFill=0;endArrow=none;endFill=0;fontFamily=Times New Roman;" edge="1" parent="A7C5cVz3kOfiMGiPul0y-105" source="A7C5cVz3kOfiMGiPul0y-106" target="A7C5cVz3kOfiMGiPul0y-106">
          <mxGeometry relative="1" as="geometry" />
        </mxCell>
        <mxCell id="A7C5cVz3kOfiMGiPul0y-111" value="" style="group;rotation=45;" vertex="1" connectable="0" parent="A7C5cVz3kOfiMGiPul0y-105">
          <mxGeometry x="5.888045789133486" y="5.888045789133514" width="28.42999999999995" height="28.42999999999995" as="geometry" />
        </mxCell>
        <mxCell id="A7C5cVz3kOfiMGiPul0y-112" value="" style="group;rotation=45;" vertex="1" connectable="0" parent="A7C5cVz3kOfiMGiPul0y-111">
          <mxGeometry x="13" width="3" height="28.42999999999995" as="geometry" />
        </mxCell>
        <mxCell id="A7C5cVz3kOfiMGiPul0y-113" value="" style="shape=delay;whiteSpace=wrap;html=1;fontFamily=宋体;fontSize=26;fillColor=#000000;rotation=135;container=0;" vertex="1" parent="A7C5cVz3kOfiMGiPul0y-112">
          <mxGeometry x="-11" y="18" width="14.43" height="3" as="geometry" />
        </mxCell>
        <mxCell id="A7C5cVz3kOfiMGiPul0y-114" value="" style="shape=delay;whiteSpace=wrap;html=1;fontFamily=宋体;fontSize=26;fillColor=#000000;rotation=135;container=0;flipH=1;" vertex="1" parent="A7C5cVz3kOfiMGiPul0y-112">
          <mxGeometry x="-1" y="8" width="14.43" height="3" as="geometry" />
        </mxCell>
        <mxCell id="A7C5cVz3kOfiMGiPul0y-115" value="" style="group;rotation=135;" vertex="1" connectable="0" parent="A7C5cVz3kOfiMGiPul0y-111">
          <mxGeometry x="13" width="3" height="28.42999999999995" as="geometry" />
        </mxCell>
        <mxCell id="A7C5cVz3kOfiMGiPul0y-116" value="" style="shape=delay;whiteSpace=wrap;html=1;fontFamily=宋体;fontSize=26;fillColor=#000000;rotation=225;container=0;" vertex="1" parent="A7C5cVz3kOfiMGiPul0y-115">
          <mxGeometry x="-11" y="8" width="14.43" height="3" as="geometry" />
        </mxCell>
        <mxCell id="A7C5cVz3kOfiMGiPul0y-117" value="" style="shape=delay;whiteSpace=wrap;html=1;fontFamily=宋体;fontSize=26;fillColor=#000000;rotation=225;container=0;flipH=1;" vertex="1" parent="A7C5cVz3kOfiMGiPul0y-115">
          <mxGeometry x="-1" y="18" width="14.43" height="3" as="geometry" />
        </mxCell>
        <mxCell id="A7C5cVz3kOfiMGiPul0y-118" value="softmax + L1&lt;font face=&quot;宋体&quot;&gt;正则化&lt;/font&gt;" style="text;html=1;align=center;verticalAlign=middle;resizable=0;points=[];autosize=1;strokeColor=none;fillColor=none;fontSize=26;fontFamily=Times New Roman;" vertex="1" parent="1">
          <mxGeometry x="731.6065701212273" y="756.5558285345604" width="240" height="40" as="geometry" />
        </mxCell>
        <mxCell id="A7C5cVz3kOfiMGiPul0y-156" value="" style="group;fontFamily=Times New Roman;" vertex="1" connectable="0" parent="1">
          <mxGeometry x="50" y="460" width="270" height="160" as="geometry" />
        </mxCell>
        <mxCell id="A7C5cVz3kOfiMGiPul0y-157" value="" style="rounded=0;whiteSpace=wrap;html=1;strokeColor=#000000;fontFamily=Times New Roman;" vertex="1" parent="A7C5cVz3kOfiMGiPul0y-156">
          <mxGeometry x="60" y="10" width="30" height="140" as="geometry" />
        </mxCell>
        <mxCell id="A7C5cVz3kOfiMGiPul0y-158" value="" style="rounded=0;whiteSpace=wrap;html=1;strokeColor=#000000;fontFamily=Times New Roman;" vertex="1" parent="A7C5cVz3kOfiMGiPul0y-156">
          <mxGeometry x="100" y="10" width="30" height="140" as="geometry" />
        </mxCell>
        <mxCell id="A7C5cVz3kOfiMGiPul0y-159" value="" style="rounded=0;whiteSpace=wrap;html=1;strokeColor=#000000;fontFamily=Times New Roman;" vertex="1" parent="A7C5cVz3kOfiMGiPul0y-156">
          <mxGeometry x="140" y="10" width="30" height="140" as="geometry" />
        </mxCell>
        <mxCell id="A7C5cVz3kOfiMGiPul0y-160" value="" style="rounded=0;whiteSpace=wrap;html=1;strokeColor=#000000;fontFamily=Times New Roman;" vertex="1" parent="A7C5cVz3kOfiMGiPul0y-156">
          <mxGeometry x="180" y="10" width="30" height="140" as="geometry" />
        </mxCell>
        <mxCell id="A7C5cVz3kOfiMGiPul0y-161" value="" style="verticalLabelPosition=bottom;verticalAlign=top;html=1;shape=mxgraph.basic.polygon;polyCoords=[[0.2,0],[0.8,0],[0.85,0.13],[0.85,0.88],[0.8,1],[0.2,1],[0.15,0.88],[0.15,0.13]];polyline=0;strokeColor=#000000;dashed=1;opacity=90;fillStyle=hatch;fontFamily=Times New Roman;" vertex="1" parent="A7C5cVz3kOfiMGiPul0y-156">
          <mxGeometry width="270" height="160" as="geometry" />
        </mxCell>
        <mxCell id="A7C5cVz3kOfiMGiPul0y-162" value="&lt;font style=&quot;font-size: 26px;&quot;&gt;Y&lt;/font&gt;" style="text;html=1;align=center;verticalAlign=middle;resizable=0;points=[];autosize=1;strokeColor=none;fillColor=none;fontSize=22;fontFamily=Times New Roman;" vertex="1" parent="A7C5cVz3kOfiMGiPul0y-156">
          <mxGeometry y="55" width="40" height="40" as="geometry" />
        </mxCell>
        <mxCell id="A7C5cVz3kOfiMGiPul0y-168" value="&lt;b&gt;&lt;font style=&quot;font-size: 20px;&quot;&gt;B,C&lt;/font&gt;&lt;/b&gt;" style="text;html=1;align=center;verticalAlign=middle;resizable=0;points=[];autosize=1;strokeColor=none;fillColor=none;fontSize=26;fontFamily=Times New Roman;" vertex="1" parent="1">
          <mxGeometry x="155" y="420" width="60" height="40" as="geometry" />
        </mxCell>
        <mxCell id="A7C5cVz3kOfiMGiPul0y-169" value="" style="group;fontFamily=Times New Roman;" vertex="1" connectable="0" parent="1">
          <mxGeometry x="736.4" y="460" width="285" height="160" as="geometry" />
        </mxCell>
        <mxCell id="A7C5cVz3kOfiMGiPul0y-170" value="" style="group;fontFamily=Times New Roman;" vertex="1" connectable="0" parent="A7C5cVz3kOfiMGiPul0y-169">
          <mxGeometry width="285" height="160" as="geometry" />
        </mxCell>
        <mxCell id="A7C5cVz3kOfiMGiPul0y-171" value="" style="rounded=0;whiteSpace=wrap;html=1;strokeColor=#000000;fontFamily=Times New Roman;" vertex="1" parent="A7C5cVz3kOfiMGiPul0y-170">
          <mxGeometry x="60" y="10" width="30" height="140" as="geometry" />
        </mxCell>
        <mxCell id="A7C5cVz3kOfiMGiPul0y-172" value="" style="rounded=0;whiteSpace=wrap;html=1;strokeColor=#000000;fontFamily=Times New Roman;" vertex="1" parent="A7C5cVz3kOfiMGiPul0y-170">
          <mxGeometry x="100" y="10" width="30" height="140" as="geometry" />
        </mxCell>
        <mxCell id="A7C5cVz3kOfiMGiPul0y-173" value="" style="rounded=0;whiteSpace=wrap;html=1;strokeColor=#000000;fontFamily=Times New Roman;" vertex="1" parent="A7C5cVz3kOfiMGiPul0y-170">
          <mxGeometry x="140" y="10" width="30" height="140" as="geometry" />
        </mxCell>
        <mxCell id="A7C5cVz3kOfiMGiPul0y-174" value="" style="rounded=0;whiteSpace=wrap;html=1;strokeColor=#000000;fontFamily=Times New Roman;" vertex="1" parent="A7C5cVz3kOfiMGiPul0y-170">
          <mxGeometry x="180" y="10" width="30" height="140" as="geometry" />
        </mxCell>
        <mxCell id="A7C5cVz3kOfiMGiPul0y-175" value="" style="verticalLabelPosition=bottom;verticalAlign=top;html=1;shape=mxgraph.basic.polygon;polyCoords=[[0.2,0],[0.8,0],[0.85,0.13],[0.85,0.88],[0.8,1],[0.2,1],[0.15,0.88],[0.15,0.13]];polyline=0;strokeColor=#000000;dashed=1;opacity=90;fillStyle=hatch;fontFamily=Times New Roman;" vertex="1" parent="A7C5cVz3kOfiMGiPul0y-170">
          <mxGeometry width="270" height="160" as="geometry" />
        </mxCell>
        <mxCell id="A7C5cVz3kOfiMGiPul0y-176" value="&lt;span style=&quot;font-size: 26px;&quot;&gt;F&lt;/span&gt;&lt;span style=&quot;font-size: 18.0556px;&quot;&gt;y&lt;/span&gt;" style="text;html=1;align=center;verticalAlign=middle;resizable=0;points=[];autosize=1;strokeColor=none;fillColor=none;fontSize=22;fontFamily=Times New Roman;" vertex="1" parent="A7C5cVz3kOfiMGiPul0y-170">
          <mxGeometry x="235" y="60" width="50" height="40" as="geometry" />
        </mxCell>
        <mxCell id="A7C5cVz3kOfiMGiPul0y-203" value="&lt;font face=&quot;Times New Roman&quot; style=&quot;font-size: 23px;&quot;&gt;Target&lt;/font&gt;" style="text;html=1;align=center;verticalAlign=middle;resizable=0;points=[];autosize=1;strokeColor=none;fillColor=none;" vertex="1" parent="1">
          <mxGeometry x="135" y="625" width="80" height="40" as="geometry" />
        </mxCell>
        <mxCell id="A7C5cVz3kOfiMGiPul0y-260" style="edgeStyle=orthogonalEdgeStyle;rounded=0;orthogonalLoop=1;jettySize=auto;html=1;entryX=0.5;entryY=1;entryDx=0;entryDy=0;fontFamily=Times New Roman;fontSize=20;startArrow=none;startFill=0;endArrow=block;endFill=1;" edge="1" parent="1" source="A7C5cVz3kOfiMGiPul0y-222" target="A7C5cVz3kOfiMGiPul0y-232">
          <mxGeometry relative="1" as="geometry" />
        </mxCell>
        <mxCell id="A7C5cVz3kOfiMGiPul0y-261" style="edgeStyle=orthogonalEdgeStyle;rounded=0;orthogonalLoop=1;jettySize=auto;html=1;entryX=0.5;entryY=1;entryDx=0;entryDy=0;fontFamily=Times New Roman;fontSize=20;startArrow=none;startFill=0;endArrow=block;endFill=1;" edge="1" parent="1" source="A7C5cVz3kOfiMGiPul0y-222" target="A7C5cVz3kOfiMGiPul0y-245">
          <mxGeometry relative="1" as="geometry" />
        </mxCell>
        <mxCell id="A7C5cVz3kOfiMGiPul0y-222" value="" style="verticalLabelPosition=bottom;verticalAlign=top;html=1;shape=mxgraph.basic.rect;fillColor2=none;strokeWidth=1;size=20;indent=5;fillStyle=auto;rotation=90;fontFamily=Times New Roman;" vertex="1" parent="1">
          <mxGeometry x="310" y="590" width="105" height="30" as="geometry" />
        </mxCell>
        <mxCell id="A7C5cVz3kOfiMGiPul0y-228" style="edgeStyle=orthogonalEdgeStyle;rounded=0;orthogonalLoop=1;jettySize=auto;html=1;entryX=0.488;entryY=1.029;entryDx=0;entryDy=0;entryPerimeter=0;fontFamily=Times New Roman;fontSize=20;startArrow=none;startFill=0;endArrow=block;endFill=1;" edge="1" parent="1" target="A7C5cVz3kOfiMGiPul0y-4">
          <mxGeometry relative="1" as="geometry">
            <mxPoint x="280" y="540" as="sourcePoint" />
            <Array as="points">
              <mxPoint x="280" y="543" />
              <mxPoint x="280" y="540" />
              <mxPoint x="300" y="540" />
              <mxPoint x="300" y="484" />
            </Array>
          </mxGeometry>
        </mxCell>
        <mxCell id="A7C5cVz3kOfiMGiPul0y-229" style="edgeStyle=orthogonalEdgeStyle;rounded=0;orthogonalLoop=1;jettySize=auto;html=1;entryX=0.499;entryY=0.977;entryDx=0;entryDy=0;entryPerimeter=0;fontFamily=Times New Roman;fontSize=20;startArrow=none;startFill=0;endArrow=block;endFill=1;exitX=0.852;exitY=0.506;exitDx=0;exitDy=0;exitPerimeter=0;" edge="1" parent="1" source="A7C5cVz3kOfiMGiPul0y-161" target="A7C5cVz3kOfiMGiPul0y-222">
          <mxGeometry relative="1" as="geometry">
            <Array as="points">
              <mxPoint x="300" y="540" />
              <mxPoint x="300" y="605" />
            </Array>
          </mxGeometry>
        </mxCell>
        <mxCell id="A7C5cVz3kOfiMGiPul0y-230" style="edgeStyle=orthogonalEdgeStyle;rounded=0;orthogonalLoop=1;jettySize=auto;html=1;endArrow=block;endFill=1;fontFamily=Times New Roman;entryX=0;entryY=0.5;entryDx=0;entryDy=0;" edge="1" parent="1" target="A7C5cVz3kOfiMGiPul0y-245">
          <mxGeometry relative="1" as="geometry">
            <mxPoint x="668.29" y="540.21" as="targetPoint" />
            <mxPoint x="596.5799999999999" y="540.21" as="sourcePoint" />
          </mxGeometry>
        </mxCell>
        <mxCell id="A7C5cVz3kOfiMGiPul0y-231" value="" style="group" vertex="1" connectable="0" parent="1">
          <mxGeometry x="558.2879931801876" y="519.9997698754842" width="40.20609157826698" height="40.20609157826698" as="geometry" />
        </mxCell>
        <mxCell id="A7C5cVz3kOfiMGiPul0y-232" value="" style="ellipse;whiteSpace=wrap;html=1;fillStyle=auto;strokeColor=#000000;fillColor=#ffffff;fontFamily=Times New Roman;container=0;" vertex="1" parent="A7C5cVz3kOfiMGiPul0y-231">
          <mxGeometry x="0.1020068198123738" y="0.10023012451586055" width="40" height="40" as="geometry" />
        </mxCell>
        <mxCell id="A7C5cVz3kOfiMGiPul0y-233" style="edgeStyle=none;rounded=0;orthogonalLoop=1;jettySize=auto;html=1;exitX=1;exitY=0;exitDx=0;exitDy=0;strokeWidth=3;fontColor=#ffffff;startArrow=none;startFill=0;endArrow=none;endFill=0;fontFamily=Times New Roman;" edge="1" parent="A7C5cVz3kOfiMGiPul0y-231" source="A7C5cVz3kOfiMGiPul0y-232" target="A7C5cVz3kOfiMGiPul0y-232">
          <mxGeometry relative="1" as="geometry" />
        </mxCell>
        <mxCell id="A7C5cVz3kOfiMGiPul0y-234" style="edgeStyle=none;rounded=0;orthogonalLoop=1;jettySize=auto;html=1;exitX=1;exitY=0;exitDx=0;exitDy=0;strokeWidth=3;fontColor=#ffffff;startArrow=none;startFill=0;endArrow=none;endFill=0;fontFamily=Times New Roman;" edge="1" parent="A7C5cVz3kOfiMGiPul0y-231" source="A7C5cVz3kOfiMGiPul0y-232" target="A7C5cVz3kOfiMGiPul0y-232">
          <mxGeometry relative="1" as="geometry" />
        </mxCell>
        <mxCell id="A7C5cVz3kOfiMGiPul0y-235" style="edgeStyle=none;rounded=0;orthogonalLoop=1;jettySize=auto;html=1;exitX=0;exitY=1;exitDx=0;exitDy=0;strokeWidth=3;fontColor=#ffffff;startArrow=none;startFill=0;endArrow=none;endFill=0;fontFamily=Times New Roman;" edge="1" parent="A7C5cVz3kOfiMGiPul0y-231" source="A7C5cVz3kOfiMGiPul0y-232" target="A7C5cVz3kOfiMGiPul0y-232">
          <mxGeometry relative="1" as="geometry">
            <mxPoint x="45.816292534098096" y="2.957372981658807" as="targetPoint" />
            <Array as="points" />
          </mxGeometry>
        </mxCell>
        <mxCell id="A7C5cVz3kOfiMGiPul0y-236" style="edgeStyle=none;rounded=1;orthogonalLoop=1;jettySize=auto;html=1;entryX=0;entryY=1;entryDx=0;entryDy=0;strokeWidth=3;fontColor=#ffffff;startArrow=none;startFill=0;endArrow=none;endFill=0;fontFamily=Times New Roman;" edge="1" parent="A7C5cVz3kOfiMGiPul0y-231" source="A7C5cVz3kOfiMGiPul0y-232" target="A7C5cVz3kOfiMGiPul0y-232">
          <mxGeometry relative="1" as="geometry" />
        </mxCell>
        <mxCell id="A7C5cVz3kOfiMGiPul0y-237" value="" style="group;rotation=45;" vertex="1" connectable="0" parent="A7C5cVz3kOfiMGiPul0y-231">
          <mxGeometry x="5.888045789133486" y="5.888045789133514" width="28.42999999999995" height="28.42999999999995" as="geometry" />
        </mxCell>
        <mxCell id="A7C5cVz3kOfiMGiPul0y-238" value="" style="group;rotation=45;" vertex="1" connectable="0" parent="A7C5cVz3kOfiMGiPul0y-237">
          <mxGeometry x="13" width="3" height="28.42999999999995" as="geometry" />
        </mxCell>
        <mxCell id="A7C5cVz3kOfiMGiPul0y-239" value="" style="shape=delay;whiteSpace=wrap;html=1;fontFamily=宋体;fontSize=26;fillColor=#000000;rotation=135;container=0;" vertex="1" parent="A7C5cVz3kOfiMGiPul0y-238">
          <mxGeometry x="-11" y="18" width="14.43" height="3" as="geometry" />
        </mxCell>
        <mxCell id="A7C5cVz3kOfiMGiPul0y-240" value="" style="shape=delay;whiteSpace=wrap;html=1;fontFamily=宋体;fontSize=26;fillColor=#000000;rotation=135;container=0;flipH=1;" vertex="1" parent="A7C5cVz3kOfiMGiPul0y-238">
          <mxGeometry x="-1" y="8" width="14.43" height="3" as="geometry" />
        </mxCell>
        <mxCell id="A7C5cVz3kOfiMGiPul0y-241" value="" style="group;rotation=135;" vertex="1" connectable="0" parent="A7C5cVz3kOfiMGiPul0y-237">
          <mxGeometry x="13" width="3" height="28.42999999999995" as="geometry" />
        </mxCell>
        <mxCell id="A7C5cVz3kOfiMGiPul0y-242" value="" style="shape=delay;whiteSpace=wrap;html=1;fontFamily=宋体;fontSize=26;fillColor=#000000;rotation=225;container=0;" vertex="1" parent="A7C5cVz3kOfiMGiPul0y-241">
          <mxGeometry x="-11" y="8" width="14.43" height="3" as="geometry" />
        </mxCell>
        <mxCell id="A7C5cVz3kOfiMGiPul0y-243" value="" style="shape=delay;whiteSpace=wrap;html=1;fontFamily=宋体;fontSize=26;fillColor=#000000;rotation=225;container=0;flipH=1;" vertex="1" parent="A7C5cVz3kOfiMGiPul0y-241">
          <mxGeometry x="-1" y="18" width="14.43" height="3" as="geometry" />
        </mxCell>
        <mxCell id="A7C5cVz3kOfiMGiPul0y-244" value="" style="group;fontFamily=Times New Roman;fontSize=23;" vertex="1" connectable="0" parent="1">
          <mxGeometry x="673.5999999999999" y="520" width="40" height="40" as="geometry" />
        </mxCell>
        <mxCell id="A7C5cVz3kOfiMGiPul0y-245" value="" style="ellipse;whiteSpace=wrap;html=1;fillStyle=auto;strokeColor=#000000;fillColor=#ffffff;fontFamily=Times New Roman;container=0;fontSize=23;" vertex="1" parent="A7C5cVz3kOfiMGiPul0y-244">
          <mxGeometry width="40" height="40" as="geometry" />
        </mxCell>
        <mxCell id="A7C5cVz3kOfiMGiPul0y-246" style="edgeStyle=none;rounded=0;orthogonalLoop=1;jettySize=auto;html=1;exitX=1;exitY=0;exitDx=0;exitDy=0;strokeWidth=3;fontColor=#ffffff;startArrow=none;startFill=0;endArrow=none;endFill=0;fontFamily=Times New Roman;fontSize=23;" edge="1" parent="A7C5cVz3kOfiMGiPul0y-244">
          <mxGeometry relative="1" as="geometry">
            <mxPoint x="34.1421356237156" y="15.857864376284056" as="sourcePoint" />
            <mxPoint x="34.1421356237156" y="15.857864376284056" as="targetPoint" />
          </mxGeometry>
        </mxCell>
        <mxCell id="A7C5cVz3kOfiMGiPul0y-247" style="edgeStyle=none;rounded=0;orthogonalLoop=1;jettySize=auto;html=1;exitX=1;exitY=0;exitDx=0;exitDy=0;strokeWidth=3;fontColor=#ffffff;startArrow=none;startFill=0;endArrow=none;endFill=0;fontFamily=Times New Roman;fontSize=23;" edge="1" parent="A7C5cVz3kOfiMGiPul0y-244">
          <mxGeometry relative="1" as="geometry">
            <mxPoint x="34.1421356237156" y="15.857864376284056" as="sourcePoint" />
            <mxPoint x="34.1421356237156" y="15.857864376284056" as="targetPoint" />
          </mxGeometry>
        </mxCell>
        <mxCell id="A7C5cVz3kOfiMGiPul0y-248" style="edgeStyle=none;rounded=0;orthogonalLoop=1;jettySize=auto;html=1;exitX=0;exitY=1;exitDx=0;exitDy=0;strokeWidth=3;fontColor=#ffffff;startArrow=none;startFill=0;endArrow=none;endFill=0;fontFamily=Times New Roman;fontSize=23;" edge="1" parent="A7C5cVz3kOfiMGiPul0y-244" source="A7C5cVz3kOfiMGiPul0y-245" target="A7C5cVz3kOfiMGiPul0y-245">
          <mxGeometry relative="1" as="geometry">
            <mxPoint x="-319.2857142857143" y="-317.1428571428571" as="targetPoint" />
            <Array as="points" />
          </mxGeometry>
        </mxCell>
        <mxCell id="A7C5cVz3kOfiMGiPul0y-249" style="edgeStyle=none;rounded=1;orthogonalLoop=1;jettySize=auto;html=1;entryX=0;entryY=1;entryDx=0;entryDy=0;strokeWidth=3;fontColor=#ffffff;startArrow=none;startFill=0;endArrow=none;endFill=0;fontFamily=Times New Roman;fontSize=23;" edge="1" parent="A7C5cVz3kOfiMGiPul0y-244" source="A7C5cVz3kOfiMGiPul0y-245" target="A7C5cVz3kOfiMGiPul0y-245">
          <mxGeometry relative="1" as="geometry" />
        </mxCell>
        <mxCell id="A7C5cVz3kOfiMGiPul0y-250" value="" style="group;fontFamily=Times New Roman;fontSize=23;" vertex="1" connectable="0" parent="A7C5cVz3kOfiMGiPul0y-244">
          <mxGeometry x="18.781038969321116" y="5.777815664617606" width="3" height="28.42999999999995" as="geometry" />
        </mxCell>
        <mxCell id="A7C5cVz3kOfiMGiPul0y-251" value="" style="shape=delay;whiteSpace=wrap;html=1;fontFamily=宋体;fontSize=26;fillColor=#000000;rotation=90;container=0;" vertex="1" parent="A7C5cVz3kOfiMGiPul0y-250">
          <mxGeometry x="-5.715000000000032" y="19.715000000000032" width="14.43" height="3" as="geometry" />
        </mxCell>
        <mxCell id="A7C5cVz3kOfiMGiPul0y-252" value="" style="shape=delay;whiteSpace=wrap;html=1;fontFamily=宋体;fontSize=26;fillColor=#000000;rotation=90;container=0;flipH=1;" vertex="1" parent="A7C5cVz3kOfiMGiPul0y-250">
          <mxGeometry x="-5.715000000000032" y="5.715000000000032" width="14.43" height="3" as="geometry" />
        </mxCell>
        <mxCell id="A7C5cVz3kOfiMGiPul0y-253" value="" style="group;rotation=90;fontFamily=Times New Roman;fontSize=23;" vertex="1" connectable="0" parent="A7C5cVz3kOfiMGiPul0y-244">
          <mxGeometry x="18.781038969321116" y="5.777815664617606" width="3" height="28.42999999999995" as="geometry" />
        </mxCell>
        <mxCell id="A7C5cVz3kOfiMGiPul0y-254" value="" style="shape=delay;whiteSpace=wrap;html=1;fontFamily=宋体;fontSize=26;fillColor=#000000;rotation=180;container=0;" vertex="1" parent="A7C5cVz3kOfiMGiPul0y-253">
          <mxGeometry x="-13" y="13" width="14.43" height="3" as="geometry" />
        </mxCell>
        <mxCell id="A7C5cVz3kOfiMGiPul0y-255" value="" style="shape=delay;whiteSpace=wrap;html=1;fontFamily=宋体;fontSize=26;fillColor=#000000;rotation=180;container=0;flipH=1;" vertex="1" parent="A7C5cVz3kOfiMGiPul0y-253">
          <mxGeometry x="1" y="13" width="14.43" height="3" as="geometry" />
        </mxCell>
        <mxCell id="A7C5cVz3kOfiMGiPul0y-257" style="edgeStyle=orthogonalEdgeStyle;rounded=0;orthogonalLoop=1;jettySize=auto;html=1;entryX=0.5;entryY=0;entryDx=0;entryDy=0;fontFamily=Times New Roman;fontSize=20;startArrow=none;startFill=0;endArrow=block;endFill=1;" edge="1" parent="1" source="A7C5cVz3kOfiMGiPul0y-12" target="A7C5cVz3kOfiMGiPul0y-232">
          <mxGeometry relative="1" as="geometry" />
        </mxCell>
        <mxCell id="A7C5cVz3kOfiMGiPul0y-258" style="edgeStyle=orthogonalEdgeStyle;rounded=0;orthogonalLoop=1;jettySize=auto;html=1;exitX=0;exitY=0;exitDx=0;exitDy=0;fontFamily=Times New Roman;fontSize=20;startArrow=none;startFill=0;endArrow=block;endFill=1;" edge="1" parent="1">
          <mxGeometry relative="1" as="geometry">
            <mxPoint x="578.5285714285714" y="409.74285714285713" as="targetPoint" />
            <mxPoint x="578.3885714285715" y="409.5985714285815" as="sourcePoint" />
          </mxGeometry>
        </mxCell>
        <mxCell id="A7C5cVz3kOfiMGiPul0y-262" style="edgeStyle=orthogonalEdgeStyle;rounded=0;orthogonalLoop=1;jettySize=auto;html=1;entryX=0.151;entryY=0.503;entryDx=0;entryDy=0;entryPerimeter=0;fontFamily=Times New Roman;fontSize=20;startArrow=none;startFill=0;endArrow=block;endFill=1;" edge="1" parent="1" source="A7C5cVz3kOfiMGiPul0y-245" target="A7C5cVz3kOfiMGiPul0y-175">
          <mxGeometry relative="1" as="geometry" />
        </mxCell>
        <mxCell id="A7C5cVz3kOfiMGiPul0y-263" value="A&lt;sub&gt;xy&lt;/sub&gt;" style="text;html=1;align=center;verticalAlign=middle;resizable=0;points=[];autosize=1;strokeColor=none;fillColor=none;fontSize=22;fontFamily=Times New Roman;" vertex="1" parent="1">
          <mxGeometry x="570.21" y="458.28" width="60" height="50" as="geometry" />
        </mxCell>
        <mxCell id="A7C5cVz3kOfiMGiPul0y-264" value="&lt;font style=&quot;font-size: 22px;&quot;&gt;V&lt;sub&gt;x&lt;/sub&gt;&lt;/font&gt;" style="text;html=1;align=center;verticalAlign=middle;resizable=0;points=[];autosize=1;strokeColor=none;fillColor=none;fontFamily=Times New Roman;" vertex="1" parent="1">
          <mxGeometry x="450" y="610" width="50" height="50" as="geometry" />
        </mxCell>
        <mxCell id="A7C5cVz3kOfiMGiPul0y-273" style="edgeStyle=orthogonalEdgeStyle;rounded=0;orthogonalLoop=1;jettySize=auto;html=1;fontFamily=Times New Roman;fontSize=20;startArrow=none;startFill=0;endArrow=block;endFill=1;" edge="1" parent="1" source="A7C5cVz3kOfiMGiPul0y-64" target="A7C5cVz3kOfiMGiPul0y-122">
          <mxGeometry relative="1" as="geometry" />
        </mxCell>
        <mxCell id="A7C5cVz3kOfiMGiPul0y-64" value="" style="ellipse;whiteSpace=wrap;html=1;fillStyle=auto;strokeColor=#000000;fillColor=#ffffff;fontFamily=Times New Roman;container=0;" vertex="1" parent="1">
          <mxGeometry x="558.2900000000001" y="293.0400000000001" width="40" height="40" as="geometry" />
        </mxCell>
        <mxCell id="A7C5cVz3kOfiMGiPul0y-65" style="edgeStyle=none;rounded=0;orthogonalLoop=1;jettySize=auto;html=1;exitX=1;exitY=0;exitDx=0;exitDy=0;strokeWidth=3;fontColor=#ffffff;startArrow=none;startFill=0;endArrow=none;endFill=0;fontFamily=Times New Roman;" edge="1" parent="1" source="A7C5cVz3kOfiMGiPul0y-64" target="A7C5cVz3kOfiMGiPul0y-64">
          <mxGeometry relative="1" as="geometry" />
        </mxCell>
        <mxCell id="A7C5cVz3kOfiMGiPul0y-66" style="edgeStyle=none;rounded=0;orthogonalLoop=1;jettySize=auto;html=1;exitX=1;exitY=0;exitDx=0;exitDy=0;strokeWidth=3;fontColor=#ffffff;startArrow=none;startFill=0;endArrow=none;endFill=0;fontFamily=Times New Roman;" edge="1" parent="1" source="A7C5cVz3kOfiMGiPul0y-64" target="A7C5cVz3kOfiMGiPul0y-64">
          <mxGeometry relative="1" as="geometry" />
        </mxCell>
        <mxCell id="A7C5cVz3kOfiMGiPul0y-67" style="edgeStyle=none;rounded=0;orthogonalLoop=1;jettySize=auto;html=1;exitX=0;exitY=1;exitDx=0;exitDy=0;strokeWidth=3;fontColor=#ffffff;startArrow=none;startFill=0;endArrow=none;endFill=0;fontFamily=Times New Roman;" edge="1" parent="1" source="A7C5cVz3kOfiMGiPul0y-64" target="A7C5cVz3kOfiMGiPul0y-64">
          <mxGeometry relative="1" as="geometry">
            <mxPoint x="604.0042857142859" y="295.897142857143" as="targetPoint" />
            <Array as="points" />
          </mxGeometry>
        </mxCell>
        <mxCell id="A7C5cVz3kOfiMGiPul0y-68" style="edgeStyle=none;rounded=1;orthogonalLoop=1;jettySize=auto;html=1;entryX=0;entryY=1;entryDx=0;entryDy=0;strokeWidth=3;fontColor=#ffffff;startArrow=none;startFill=0;endArrow=none;endFill=0;fontFamily=Times New Roman;" edge="1" parent="1" source="A7C5cVz3kOfiMGiPul0y-64" target="A7C5cVz3kOfiMGiPul0y-64">
          <mxGeometry relative="1" as="geometry" />
        </mxCell>
        <mxCell id="A7C5cVz3kOfiMGiPul0y-71" value="" style="shape=delay;whiteSpace=wrap;html=1;fontFamily=宋体;fontSize=26;fillColor=#000000;rotation=135;container=0;" vertex="1" parent="1">
          <mxGeometry x="566.0760389693212" y="316.82781566461773" width="14.43" height="3" as="geometry" />
        </mxCell>
        <mxCell id="A7C5cVz3kOfiMGiPul0y-72" value="" style="shape=delay;whiteSpace=wrap;html=1;fontFamily=宋体;fontSize=26;fillColor=#000000;rotation=135;container=0;flipH=1;" vertex="1" parent="1">
          <mxGeometry x="576.0760389693212" y="306.82781566461773" width="14.43" height="3" as="geometry" />
        </mxCell>
        <mxCell id="A7C5cVz3kOfiMGiPul0y-74" value="" style="shape=delay;whiteSpace=wrap;html=1;fontFamily=宋体;fontSize=26;fillColor=#000000;rotation=225;container=0;" vertex="1" parent="1">
          <mxGeometry x="566.0760389693212" y="306.82781566461773" width="14.43" height="3" as="geometry" />
        </mxCell>
        <mxCell id="A7C5cVz3kOfiMGiPul0y-75" value="" style="shape=delay;whiteSpace=wrap;html=1;fontFamily=宋体;fontSize=26;fillColor=#000000;rotation=225;container=0;flipH=1;" vertex="1" parent="1">
          <mxGeometry x="576.0760389693212" y="316.82781566461773" width="14.43" height="3" as="geometry" />
        </mxCell>
        <mxCell id="A7C5cVz3kOfiMGiPul0y-277" style="edgeStyle=orthogonalEdgeStyle;rounded=0;orthogonalLoop=1;jettySize=auto;html=1;fontFamily=Times New Roman;fontSize=20;startArrow=none;startFill=0;endArrow=block;endFill=1;" edge="1" parent="1" source="A7C5cVz3kOfiMGiPul0y-122">
          <mxGeometry relative="1" as="geometry">
            <mxPoint x="770" y="313.0400000000001" as="targetPoint" />
          </mxGeometry>
        </mxCell>
        <mxCell id="A7C5cVz3kOfiMGiPul0y-122" value="" style="ellipse;whiteSpace=wrap;html=1;fillStyle=auto;strokeColor=#000000;fillColor=#ffffff;fontFamily=Times New Roman;container=0;fontSize=23;" vertex="1" parent="1">
          <mxGeometry x="673.5999999999999" y="293.04" width="40" height="40" as="geometry" />
        </mxCell>
        <mxCell id="A7C5cVz3kOfiMGiPul0y-123" style="edgeStyle=none;rounded=0;orthogonalLoop=1;jettySize=auto;html=1;exitX=1;exitY=0;exitDx=0;exitDy=0;strokeWidth=3;fontColor=#ffffff;startArrow=none;startFill=0;endArrow=none;endFill=0;fontFamily=Times New Roman;fontSize=23;" edge="1" parent="1" source="A7C5cVz3kOfiMGiPul0y-122" target="A7C5cVz3kOfiMGiPul0y-122">
          <mxGeometry relative="1" as="geometry" />
        </mxCell>
        <mxCell id="A7C5cVz3kOfiMGiPul0y-124" style="edgeStyle=none;rounded=0;orthogonalLoop=1;jettySize=auto;html=1;exitX=1;exitY=0;exitDx=0;exitDy=0;strokeWidth=3;fontColor=#ffffff;startArrow=none;startFill=0;endArrow=none;endFill=0;fontFamily=Times New Roman;fontSize=23;" edge="1" parent="1" source="A7C5cVz3kOfiMGiPul0y-122" target="A7C5cVz3kOfiMGiPul0y-122">
          <mxGeometry relative="1" as="geometry" />
        </mxCell>
        <mxCell id="A7C5cVz3kOfiMGiPul0y-125" style="edgeStyle=none;rounded=0;orthogonalLoop=1;jettySize=auto;html=1;exitX=0;exitY=1;exitDx=0;exitDy=0;strokeWidth=3;fontColor=#ffffff;startArrow=none;startFill=0;endArrow=none;endFill=0;fontFamily=Times New Roman;fontSize=23;" edge="1" parent="1" source="A7C5cVz3kOfiMGiPul0y-122" target="A7C5cVz3kOfiMGiPul0y-122">
          <mxGeometry relative="1" as="geometry">
            <mxPoint x="354.3142857142857" y="-24.102857142857065" as="targetPoint" />
            <Array as="points" />
          </mxGeometry>
        </mxCell>
        <mxCell id="A7C5cVz3kOfiMGiPul0y-126" style="edgeStyle=none;rounded=1;orthogonalLoop=1;jettySize=auto;html=1;entryX=0;entryY=1;entryDx=0;entryDy=0;strokeWidth=3;fontColor=#ffffff;startArrow=none;startFill=0;endArrow=none;endFill=0;fontFamily=Times New Roman;fontSize=23;" edge="1" parent="1" source="A7C5cVz3kOfiMGiPul0y-122" target="A7C5cVz3kOfiMGiPul0y-122">
          <mxGeometry relative="1" as="geometry" />
        </mxCell>
        <mxCell id="A7C5cVz3kOfiMGiPul0y-128" value="" style="shape=delay;whiteSpace=wrap;html=1;fontFamily=宋体;fontSize=26;fillColor=#000000;rotation=90;container=0;" vertex="1" parent="1">
          <mxGeometry x="686.666038969321" y="318.53281566461766" width="14.43" height="3" as="geometry" />
        </mxCell>
        <mxCell id="A7C5cVz3kOfiMGiPul0y-129" value="" style="shape=delay;whiteSpace=wrap;html=1;fontFamily=宋体;fontSize=26;fillColor=#000000;rotation=90;container=0;flipH=1;" vertex="1" parent="1">
          <mxGeometry x="686.666038969321" y="304.53281566461766" width="14.43" height="3" as="geometry" />
        </mxCell>
        <mxCell id="A7C5cVz3kOfiMGiPul0y-131" value="" style="shape=delay;whiteSpace=wrap;html=1;fontFamily=宋体;fontSize=26;fillColor=#000000;rotation=180;container=0;" vertex="1" parent="1">
          <mxGeometry x="679.381038969321" y="311.8178156646176" width="14.43" height="3" as="geometry" />
        </mxCell>
        <mxCell id="A7C5cVz3kOfiMGiPul0y-132" value="" style="shape=delay;whiteSpace=wrap;html=1;fontFamily=宋体;fontSize=26;fillColor=#000000;rotation=180;container=0;flipH=1;" vertex="1" parent="1">
          <mxGeometry x="693.381038969321" y="311.8178156646176" width="14.43" height="3" as="geometry" />
        </mxCell>
        <mxCell id="A7C5cVz3kOfiMGiPul0y-265" value="" style="group" vertex="1" connectable="0" parent="1">
          <mxGeometry x="50" y="200" width="270" height="205" as="geometry" />
        </mxCell>
        <mxCell id="A7C5cVz3kOfiMGiPul0y-25" value="" style="group;fontFamily=Times New Roman;" vertex="1" connectable="0" parent="A7C5cVz3kOfiMGiPul0y-265">
          <mxGeometry y="45" width="270" height="160" as="geometry" />
        </mxCell>
        <mxCell id="A7C5cVz3kOfiMGiPul0y-26" value="" style="rounded=0;whiteSpace=wrap;html=1;strokeColor=#000000;fontFamily=Times New Roman;" vertex="1" parent="A7C5cVz3kOfiMGiPul0y-25">
          <mxGeometry x="60" y="10" width="30" height="140" as="geometry" />
        </mxCell>
        <mxCell id="A7C5cVz3kOfiMGiPul0y-27" value="" style="rounded=0;whiteSpace=wrap;html=1;strokeColor=#000000;fontFamily=Times New Roman;" vertex="1" parent="A7C5cVz3kOfiMGiPul0y-25">
          <mxGeometry x="100" y="10" width="30" height="140" as="geometry" />
        </mxCell>
        <mxCell id="A7C5cVz3kOfiMGiPul0y-28" value="" style="rounded=0;whiteSpace=wrap;html=1;strokeColor=#000000;fontFamily=Times New Roman;" vertex="1" parent="A7C5cVz3kOfiMGiPul0y-25">
          <mxGeometry x="140" y="10" width="30" height="140" as="geometry" />
        </mxCell>
        <mxCell id="A7C5cVz3kOfiMGiPul0y-29" value="" style="rounded=0;whiteSpace=wrap;html=1;strokeColor=#000000;fontFamily=Times New Roman;" vertex="1" parent="A7C5cVz3kOfiMGiPul0y-25">
          <mxGeometry x="180" y="10" width="30" height="140" as="geometry" />
        </mxCell>
        <mxCell id="A7C5cVz3kOfiMGiPul0y-30" value="" style="verticalLabelPosition=bottom;verticalAlign=top;html=1;shape=mxgraph.basic.polygon;polyCoords=[[0.2,0],[0.8,0],[0.85,0.13],[0.85,0.88],[0.8,1],[0.2,1],[0.15,0.88],[0.15,0.13]];polyline=0;strokeColor=#000000;dashed=1;opacity=90;fillStyle=hatch;fontFamily=Times New Roman;" vertex="1" parent="A7C5cVz3kOfiMGiPul0y-25">
          <mxGeometry width="270" height="160" as="geometry" />
        </mxCell>
        <mxCell id="A7C5cVz3kOfiMGiPul0y-31" value="&lt;font style=&quot;font-size: 26px;&quot;&gt;X&lt;/font&gt;" style="text;html=1;align=center;verticalAlign=middle;resizable=0;points=[];autosize=1;strokeColor=none;fillColor=none;fontSize=22;fontFamily=Times New Roman;" vertex="1" parent="A7C5cVz3kOfiMGiPul0y-25">
          <mxGeometry y="55" width="40" height="40" as="geometry" />
        </mxCell>
        <mxCell id="A7C5cVz3kOfiMGiPul0y-119" value="&lt;font face=&quot;Times New Roman&quot; style=&quot;font-size: 23px;&quot;&gt;Source&lt;/font&gt;" style="text;html=1;align=center;verticalAlign=middle;resizable=0;points=[];autosize=1;strokeColor=none;fillColor=none;" vertex="1" parent="A7C5cVz3kOfiMGiPul0y-265">
          <mxGeometry x="80" width="90" height="40" as="geometry" />
        </mxCell>
        <mxCell id="A7C5cVz3kOfiMGiPul0y-267" style="edgeStyle=orthogonalEdgeStyle;rounded=0;orthogonalLoop=1;jettySize=auto;html=1;entryX=0;entryY=1;entryDx=0;entryDy=0;fontFamily=Times New Roman;fontSize=20;startArrow=none;startFill=0;endArrow=block;endFill=1;" edge="1" parent="1" source="A7C5cVz3kOfiMGiPul0y-50" target="A7C5cVz3kOfiMGiPul0y-12">
          <mxGeometry relative="1" as="geometry" />
        </mxCell>
        <mxCell id="A7C5cVz3kOfiMGiPul0y-271" style="edgeStyle=orthogonalEdgeStyle;rounded=0;orthogonalLoop=1;jettySize=auto;html=1;fontFamily=Times New Roman;fontSize=20;startArrow=none;startFill=0;endArrow=block;endFill=1;" edge="1" parent="1" source="A7C5cVz3kOfiMGiPul0y-12" target="A7C5cVz3kOfiMGiPul0y-64">
          <mxGeometry relative="1" as="geometry" />
        </mxCell>
      </root>
    </mxGraphModel>
  </diagram>
</mxfile>
